<svg width="32" height="24" viewBox="0 0 32 24" fill="none" xmlns="http://www.w3.org/2000/svg">
<path d="M28 16C28.5304 16 29.0391 16.2107 29.4142 16.5858C29.7893 16.9609 30 17.4696 30 18V20C30 20.5304 29.7893 21.0391 29.4142 21.4142C29.0391 21.7893 28.5304 22 28 22H4C3.46957 22 2.96086 21.7893 2.58579 21.4142C2.21071 21.0391 2 20.5304 2 20V18C2 17.4696 2.21071 16.9609 2.58579 16.5858C2.96086 16.2107 3.46957 16 4 16H28ZM4 14C2.93913 14 1.92172 14.4214 1.17157 15.1716C0.421427 15.9217 0 16.9391 0 18V20C0 21.0609 0.421427 22.0783 1.17157 22.8284C1.92172 23.5786 2.93913 24 4 24H28C29.0609 24 30.0783 23.5786 30.8284 22.8284C31.5786 22.0783 32 21.0609 32 20V18C32 16.9391 31.5786 15.9217 30.8284 15.1716C30.0783 14.4214 29.0609 14 28 14H4Z" fill="#0D6EFD"/>
<path d="M10 19C10 19.2652 9.89464 19.5196 9.70711 19.7071C9.51957 19.8946 9.26522 20 9 20C8.73478 20 8.48043 19.8946 8.29289 19.7071C8.10536 19.5196 8 19.2652 8 19C8 18.7348 8.10536 18.4804 8.29289 18.2929C8.48043 18.1054 8.73478 18 9 18C9.26522 18 9.51957 18.1054 9.70711 18.2929C9.89464 18.4804 10 18.7348 10 19ZM6 19C6 19.2652 5.89464 19.5196 5.70711 19.7071C5.51957 19.8946 5.26522 20 5 20C4.73478 20 4.48043 19.8946 4.29289 19.7071C4.10536 19.5196 4 19.2652 4 19C4 18.7348 4.10536 18.4804 4.29289 18.2929C4.48043 18.1054 4.73478 18 5 18C5.26522 18 5.51957 18.1054 5.70711 18.2929C5.89464 18.4804 6 18.7348 6 19ZM28 2C28.5304 2 29.0391 2.21071 29.4142 2.58579C29.7893 2.96086 30 3.46957 30 4V6C30 6.53043 29.7893 7.03914 29.4142 7.41421C29.0391 7.78929 28.5304 8 28 8H4C3.46957 8 2.96086 7.78929 2.58579 7.41421C2.21071 7.03914 2 6.53043 2 6V4C2 3.46957 2.21071 2.96086 2.58579 2.58579C2.96086 2.21071 3.46957 2 4 2H28ZM4 0C2.93913 0 1.92172 0.421427 1.17157 1.17157C0.421427 1.92172 0 2.93913 0 4V6C0 7.06087 0.421427 8.07828 1.17157 8.82843C1.92172 9.57857 2.93913 10 4 10H28C29.0609 10 30.0783 9.57857 30.8284 8.82843C31.5786 8.07828 32 7.06087 32 6V4C32 2.93913 31.5786 1.92172 30.8284 1.17157C30.0783 0.421427 29.0609 0 28 0H4Z" fill="#0D6EFD"/>
<path d="M10 5C10 5.26522 9.89464 5.51957 9.70711 5.70711C9.51957 5.89464 9.26522 6 9 6C8.73478 6 8.48043 5.89464 8.29289 5.70711C8.10536 5.51957 8 5.26522 8 5C8 4.73478 8.10536 4.48043 8.29289 4.29289C8.48043 4.10536 8.73478 4 9 4C9.26522 4 9.51957 4.10536 9.70711 4.29289C9.89464 4.48043 10 4.73478 10 5ZM6 5C6 5.26522 5.89464 5.51957 5.70711 5.70711C5.51957 5.89464 5.26522 6 5 6C4.73478 6 4.48043 5.89464 4.29289 5.70711C4.10536 5.51957 4 5.26522 4 5C4 4.73478 4.10536 4.48043 4.29289 4.29289C4.48043 4.10536 4.73478 4 5 4C5.26522 4 5.51957 4.10536 5.70711 4.29289C5.89464 4.48043 6 4.73478 6 5Z" fill="#0D6EFD"/>
</svg>
